<svg width="120" height="72" viewBox="0 0 120 72" fill="none" xmlns="http://www.w3.org/2000/svg">
<path d="M9.30762 33.5625L13.3051 14.7675H31.6426L30.1426 21.9375H31.7251L29.2501 33.5625H9.30762ZM17.2501 21.9375H26.2501L27.1876 17.535H18.1501L17.2501 21.9375ZM15.3301 30.795H24.3901L25.6876 24.705H16.6201L15.3301 30.795Z" fill="#0E5978"/>
<path d="M38.88 33.5625L42.8775 14.7675H37.4475L33.45 33.5625H38.88Z" fill="#262626"/>
<path fill-rule="evenodd" clip-rule="evenodd" d="M71.0449 40.7975C73.0426 38.7998 75.7521 37.6775 78.5774 37.6775C83.1847 37.6775 86.4153 40.3424 88.398 42.7724C89.1401 43.6819 89.7322 44.5866 90.1836 45.3637C90.635 44.5866 91.2271 43.6819 91.9692 42.7724C93.3458 41.0853 95.3237 39.285 97.9463 38.3419L96.3149 31.2675L90.9149 32.9775L89.2574 30.36H89.2499L98.5124 27.4275L100.879 37.7127C101.177 37.6895 101.48 37.6775 101.79 37.6775C104.615 37.6775 107.325 38.7998 109.322 40.7975C111.32 42.7952 112.442 45.5047 112.442 48.33C112.442 51.1552 111.32 53.8647 109.322 55.8624C107.325 57.8601 104.615 58.9825 101.79 58.9825C97.21 58.9825 93.9802 56.3145 91.994 53.8903C91.2411 52.9714 90.6404 52.0574 90.1836 51.2754C89.7268 52.0574 89.1261 52.9714 88.3732 53.8903C86.387 56.3145 83.1572 58.9825 78.5774 58.9825C75.7521 58.9825 73.0426 57.8601 71.0449 55.8624C69.0472 53.8647 67.9249 51.1552 67.9249 48.33C67.9249 45.5047 69.0472 42.7952 71.0449 40.7975ZM98.7413 41.7895L100.327 48.6675L103.245 47.9925L101.677 41.1782C101.714 41.1777 101.752 41.1775 101.79 41.1775C103.687 41.1775 105.506 41.931 106.847 43.2724C108.189 44.6137 108.942 46.433 108.942 48.33C108.942 50.2269 108.189 52.0462 106.847 53.3875C105.506 54.7289 103.687 55.4825 101.79 55.4825C98.6972 55.4825 96.362 53.6991 94.7014 51.6721C93.8813 50.6712 93.2706 49.6616 92.8649 48.899C92.7507 48.6843 92.6537 48.491 92.5736 48.325C92.6523 48.1598 92.7477 47.9675 92.8601 47.7541C93.2609 46.9926 93.8656 45.9845 94.6811 44.985C95.7417 43.6851 97.0858 42.4824 98.7413 41.7895ZM87.7936 48.325C87.7149 48.1598 87.6195 47.9675 87.5071 47.7541C87.1063 46.9926 86.5016 45.9845 85.6861 44.985C84.037 42.9638 81.7025 41.1775 78.5774 41.1775C76.6804 41.1775 74.8611 41.931 73.5198 43.2724C72.1784 44.6137 71.4249 46.433 71.4249 48.33C71.4249 50.2269 72.1784 52.0462 73.5198 53.3875C74.8611 54.7289 76.6804 55.4825 78.5774 55.4825C81.67 55.4825 84.0052 53.6991 85.6659 51.6721C86.4859 50.6712 87.0966 49.6616 87.5023 48.899C87.6165 48.6843 87.7136 48.491 87.7936 48.325Z" fill="#262626"/>
<path d="M63.9449 33.5625H57.9449L52.8449 25.44H50.2499L48.5249 33.5625H43.1024L47.0924 14.7675H52.4999L50.8049 22.6725H53.4374L61.7999 14.7675H67.9424L58.0874 24L63.9449 33.5625Z" fill="#262626"/>
<path d="M66.4949 33.5625H86.8349L85.0799 30.8025H72.5099L73.6199 25.5525H87.3599L87.9524 22.785H74.2049L75.3299 17.535H87.9974L90.8849 14.7675H70.4999L66.4949 33.5625Z" fill="#262626"/>
<path d="M13.5524 54.8025H9.30737L12.5024 39.8025H28.2074L25.9049 42H16.2824L15.5324 45.4575H26.4074L24.0599 47.7075H15.0599L13.5524 54.8025Z" fill="#262626"/>
<path d="M26.9999 54.8025H43.3274L46.4999 39.75H42.2774L39.5549 52.59H31.7999L34.4999 39.8025H30.1949L26.9999 54.8025Z" fill="#262626"/>
<path d="M52.05 46.6125L50.31 54.8025H45.9675L49.1625 39.8025L59.4 47.8875L61.125 39.75H65.4L62.205 54.75L52.05 46.6125Z" fill="#262626"/>
</svg>
